<svg xmlns="http://www.w3.org/2000/svg" width="32" height="32" viewBox="0 0 32 32" fill="none"><rect width="32" height="32" rx="16" fill="white"></rect><g clip-path="url(#clip0_134_2364)"><path d="M14.0752 11.0692C15.2325 9.91199 15.8111 9.33337 16.5301 9.33337C17.2491 9.33337 17.8277 9.91199 18.985 11.0692L21.9308 14.0151C23.088 15.1723 23.6667 15.7509 23.6667 16.47C23.6667 17.189 23.088 17.7676 21.9308 18.9248C20.7736 20.0821 20.195 20.6607 19.4759 20.6607C18.7569 20.6607 18.1783 20.0821 17.0211 18.9248L14.0752 15.979C12.918 14.8217 12.3394 14.2431 12.3394 13.5241C12.3394 12.8051 12.918 12.2265 14.0752 11.0692Z" stroke="#0B0D0F"></path><path opacity="0.5" d="M16.5301 18.434L12.8478 22.1163C12.6195 22.3446 12.5053 22.4587 12.3866 22.5273C12.0643 22.7134 11.6673 22.7134 11.345 22.5273C11.2263 22.4587 11.1121 22.3446 10.8839 22.1163C10.6556 21.888 10.5414 21.7739 10.4728 21.6551C10.2868 21.3329 10.2868 20.9358 10.4728 20.6136C10.5414 20.4948 10.6556 20.3807 10.8839 20.1524L14.5662 16.4701" stroke="#0B0D0F"></path><path opacity="0.5" d="M21.4398 13.524L21.6853 13.2785C21.9136 13.0502 22.0277 12.936 22.0963 12.8173C22.2823 12.495 22.2823 12.098 22.0963 11.7758C22.0277 11.657 21.9136 11.5429 21.6853 11.3146C21.457 11.0863 21.3428 10.9721 21.2241 10.9036C20.9018 10.7175 20.5048 10.7175 20.1826 10.9036C20.0638 10.9721 19.9497 11.0863 19.7214 11.3146L19.4759 11.5601" stroke="#0B0D0F"></path></g><defs><clipPath id="clip0_134_2364"><rect width="16" height="16" fill="white" transform="translate(9 8)"></rect></clipPath></defs></svg>