<svg xmlns="http://www.w3.org/2000/svg" width="32" height="32" viewBox="0 0 32 32" fill="none"><rect width="32" height="32" rx="16" fill="white"></rect><path d="M9.33337 16C9.33337 13.4858 9.33337 12.2287 10.1144 11.4477C10.8955 10.6666 12.1525 10.6666 14.6667 10.6666H17.3334C19.8475 10.6666 21.1046 10.6666 21.8857 11.4477C22.6667 12.2287 22.6667 13.4858 22.6667 16V17.3333C22.6667 19.8475 22.6667 21.1045 21.8857 21.8856C21.1046 22.6666 19.8475 22.6666 17.3334 22.6666H14.6667C12.1525 22.6666 10.8955 22.6666 10.1144 21.8856C9.33337 21.1045 9.33337 19.8475 9.33337 17.3333V16Z" stroke="#8898AA"></path><path opacity="0.5" d="M12.6666 10.6666V9.66663" stroke="#8898AA" stroke-linecap="round"></path><path opacity="0.5" d="M19.3334 10.6666V9.66663" stroke="#8898AA" stroke-linecap="round"></path><path opacity="0.5" d="M9.33337 14H22.6667" stroke="#8898AA" stroke-linecap="round"></path><path d="M14 17.6666L15 16.6666V19.3333" stroke="#8898AA" stroke-width="1.5" stroke-linecap="round" stroke-linejoin="round"></path><path d="M16.6666 18.6666V17.3333C16.6666 16.9651 16.9651 16.6666 17.3333 16.6666C17.7015 16.6666 18 16.9651 18 17.3333V18.6666C18 19.0348 17.7015 19.3333 17.3333 19.3333C16.9651 19.3333 16.6666 19.0348 16.6666 18.6666Z" stroke="#8898AA" stroke-width="1.5" stroke-linecap="round"></path></svg>