<svg xmlns="http://www.w3.org/2000/svg" width="32" height="32" viewBox="0 0 32 32" fill="none"><rect width="32" height="32" rx="16" fill="white"></rect><path opacity="0.5" d="M9.83331 16C9.83331 12.8573 9.83331 11.286 10.8096 10.3097C11.7859 9.33337 13.3573 9.33337 16.5 9.33337C19.6427 9.33337 21.214 9.33337 22.1903 10.3097C23.1666 11.286 23.1666 12.8573 23.1666 16C23.1666 19.1427 23.1666 20.7141 22.1903 21.6904C21.214 22.6667 19.6427 22.6667 16.5 22.6667C13.3573 22.6667 11.7859 22.6667 10.8096 21.6904C9.83331 20.7141 9.83331 19.1427 9.83331 16Z" stroke="#0B0D0F"></path><path d="M13.1667 17.3333L14.3646 15.8958C14.8393 15.3261 15.0767 15.0413 15.3889 15.0413C15.7012 15.0413 15.9385 15.3261 16.4132 15.8958L16.5868 16.1041C17.0615 16.6738 17.2989 16.9586 17.6111 16.9586C17.9234 16.9586 18.1607 16.6738 18.6354 16.1041L19.8334 14.6666" stroke="#0B0D0F" stroke-linecap="round"></path></svg>