<svg xmlns="http://www.w3.org/2000/svg" width="32" height="32" viewBox="0 0 32 32" fill="none"><rect width="32" height="32" rx="16" fill="white"></rect><ellipse cx="16" cy="12" rx="2.66667" ry="2.66667" stroke="#0B0D0F"></ellipse><path opacity="0.5" d="M20 14C21.1046 14 22 13.2538 22 12.3333C22 11.4128 21.1046 10.6666 20 10.6666" stroke="#0B0D0F" stroke-linecap="round"></path><path opacity="0.5" d="M12 14C10.8954 14 10 13.2538 10 12.3333C10 11.4128 10.8954 10.6666 12 10.6666" stroke="#0B0D0F" stroke-linecap="round"></path><ellipse cx="16" cy="19.3333" rx="4" ry="2.66667" stroke="#0B0D0F"></ellipse><path opacity="0.5" d="M21.3333 20.6667C22.5028 20.4102 23.3333 19.7608 23.3333 19C23.3333 18.2393 22.5028 17.5898 21.3333 17.3334" stroke="#0B0D0F" stroke-linecap="round"></path><path opacity="0.5" d="M10.6667 20.6667C9.49716 20.4102 8.66666 19.7608 8.66666 19C8.66666 18.2393 9.49716 17.5898 10.6667 17.3334" stroke="#0B0D0F" stroke-linecap="round"></path></svg>