<svg width="17" height="19" viewBox="0 0 17 19" fill="none" xmlns="http://www.w3.org/2000/svg">
<path d="M11.6433 15.5249C11.0588 15.5249 10.5601 15.3185 10.1473 14.9056C9.73446 14.4928 9.52804 13.994 9.52804 13.4094C9.52804 12.8249 9.73446 12.3262 10.1473 11.9134C10.5601 11.5005 11.0588 11.2941 11.6433 11.2941C12.228 11.2941 12.7267 11.5005 13.1395 11.9134C13.5524 12.3262 13.7588 12.8249 13.7588 13.4094C13.7588 13.994 13.5524 14.4928 13.1395 14.9056C12.7267 15.3185 12.228 15.5249 11.6433 15.5249ZM2.37429 18.5249C1.91396 18.5249 1.52962 18.3707 1.22129 18.0624C0.912956 17.754 0.758789 17.3697 0.758789 16.9094V4.14038C0.758789 3.68004 0.912956 3.29571 1.22129 2.98738C1.52962 2.67904 1.91396 2.52488 2.37429 2.52488H4.14329V0.294128H5.22029V2.52488H12.3743V0.294128H13.3743V2.52488H15.1433C15.6036 2.52488 15.988 2.67904 16.2963 2.98738C16.6046 3.29571 16.7588 3.68004 16.7588 4.14038V16.9094C16.7588 17.3697 16.6046 17.754 16.2963 18.0624C15.988 18.3707 15.6036 18.5249 15.1433 18.5249H2.37429ZM2.37429 17.5249H15.1433C15.2973 17.5249 15.4384 17.4608 15.5665 17.3326C15.6947 17.2045 15.7588 17.0634 15.7588 16.9094V8.14038H1.75879V16.9094C1.75879 17.0634 1.82287 17.2045 1.95104 17.3326C2.07921 17.4608 2.22029 17.5249 2.37429 17.5249ZM1.75879 7.14013H15.7588V4.14038C15.7588 3.98638 15.6947 3.84529 15.5665 3.71713C15.4384 3.58896 15.2973 3.52488 15.1433 3.52488H2.37429C2.22029 3.52488 2.07921 3.58896 1.95104 3.71713C1.82287 3.84529 1.75879 3.98638 1.75879 4.14038V7.14013Z" fill="#F54C00"/>
</svg>
