<svg width="37" height="37" viewBox="0 0 37 37" fill="none" xmlns="http://www.w3.org/2000/svg">
<g filter="url(#filter0_d_639_3)">
<path d="M7.87365 25.6698V25.7698H7.77365H6.46289H6.36289V25.6698V11.2514V11.1514H6.46289H7.77365H7.87365V11.2514V25.6698ZM17.9006 25.4645L17.8299 25.5328L17.7604 25.4633L10.8285 18.5313L10.7577 18.4606L10.8285 18.3899L17.7604 11.4579L17.8311 11.3872L17.9019 11.4579L18.8043 12.3604L18.8746 12.4307L18.8047 12.5014L13.6571 17.7052H30.0566H30.1566V17.8052V19.116V19.216H30.0566H13.6337L18.8371 24.4194L18.9091 24.4914L18.8358 24.5621L17.9006 25.4645Z" fill="#909397" stroke="#6A7680" stroke-width="0.2"/>
</g>
<defs>
<filter id="filter0_d_639_3" x="-3.74023" y="0.460938" width="44" height="44" filterUnits="userSpaceOnUse" color-interpolation-filters="sRGB">
<feFlood flood-opacity="0" result="BackgroundImageFix"/>
<feColorMatrix in="SourceAlpha" type="matrix" values="0 0 0 0 0 0 0 0 0 0 0 0 0 0 0 0 0 0 127 0" result="hardAlpha"/>
<feOffset dy="4"/>
<feGaussianBlur stdDeviation="2"/>
<feComposite in2="hardAlpha" operator="out"/>
<feColorMatrix type="matrix" values="0 0 0 0 0 0 0 0 0 0 0 0 0 0 0 0 0 0 0.25 0"/>
<feBlend mode="normal" in2="BackgroundImageFix" result="effect1_dropShadow_639_3"/>
<feBlend mode="normal" in="SourceGraphic" in2="effect1_dropShadow_639_3" result="shape"/>
</filter>
</defs>
</svg>
