<svg width="20" height="17" viewBox="0 0 20 17" fill="none" xmlns="http://www.w3.org/2000/svg">
<path d="M1.98535 3.80775H11.0316H10.1969H10.5084H1.98535ZM2.3661 2.80775H15.5854L14.2546 1.2115C14.1904 1.1475 14.1167 1.09625 14.0334 1.05775C13.95 1.01925 13.8635 1 13.7739 1H4.1776C4.08794 1 4.00144 1.01925 3.9181 1.05775C3.83477 1.09625 3.76102 1.1475 3.69685 1.2115L2.3661 2.80775ZM6.98535 8.9615L8.98535 7.9615L10.9854 8.9615V3.80775H6.98535V8.9615ZM11.0161 16H2.60085C2.15652 16 1.77618 15.8418 1.45985 15.5255C1.14352 15.2092 0.985352 14.8288 0.985352 14.3845V3.4865C0.985352 3.298 1.01643 3.11625 1.0786 2.94125C1.14077 2.76625 1.23402 2.60633 1.35835 2.4615L2.9161 0.5905C3.06094 0.400333 3.24202 0.254416 3.45935 0.15275C3.67668 0.0509163 3.91069 0 4.16135 0H13.7709C14.0215 0 14.2579 0.0509163 14.4801 0.15275C14.7023 0.254416 14.8874 0.400333 15.0354 0.5905L16.6124 2.5C16.7367 2.65017 16.8299 2.814 16.8921 2.9915C16.9543 3.16883 16.9854 3.35308 16.9854 3.54425V7.3095C16.8482 7.26983 16.7027 7.24233 16.5489 7.227C16.395 7.2115 16.2457 7.20375 16.1009 7.20375H15.9854V3.80775H11.9854V8.9595C11.7995 9.08783 11.6149 9.26 11.4316 9.476C11.2483 9.692 11.1149 9.90317 11.0316 10.1095L8.98535 9.09625L5.98535 10.5963V3.80775H1.98535V14.3845C1.98535 14.564 2.04302 14.7115 2.15835 14.827C2.27385 14.9423 2.42135 15 2.60085 15H10.5084C10.568 15.1868 10.6426 15.3614 10.7321 15.5238C10.8214 15.6861 10.9161 15.8448 11.0161 16ZM15.5816 16.5963V13.5963H12.5816V12.5963H15.5816V9.59625H16.5816V12.5963H19.5816V13.5963H16.5816V16.5963H15.5816Z" fill="white"/>
</svg>
