<svg width="19" height="18" viewBox="0 0 19 18" fill="none" xmlns="http://www.w3.org/2000/svg">
<path d="M3.60085 18C3.15335 18 2.77219 17.8427 2.45735 17.528C2.14269 17.2132 1.98535 16.832 1.98535 16.3845V5.2635C1.69818 5.14417 1.45969 4.9515 1.26985 4.6855C1.08019 4.4195 0.985352 4.11408 0.985352 3.76925V1.6155C0.985352 1.168 1.14269 0.786833 1.45735 0.472C1.77219 0.157333 2.15335 0 2.60085 0H17.3699C17.8174 0 18.1985 0.157333 18.5134 0.472C18.828 0.786833 18.9854 1.168 18.9854 1.6155V3.76925C18.9854 4.11408 18.8905 4.4195 18.7009 4.6855C18.511 4.9515 18.2725 5.14417 17.9854 5.2635V16.3845C17.9854 16.832 17.828 17.2132 17.5134 17.528C17.1985 17.8427 16.8174 18 16.3699 18H3.60085ZM2.98535 5.3845V16.2885C2.98535 16.4937 3.0591 16.6635 3.2066 16.798C3.35394 16.9327 3.5366 17 3.7546 17H16.3699C16.5494 17 16.6969 16.9423 16.8124 16.827C16.9277 16.7115 16.9854 16.564 16.9854 16.3845V5.3845H2.98535ZM2.60085 4.3845H17.3699C17.5494 4.3845 17.6969 4.32683 17.8124 4.2115C17.9277 4.09617 17.9854 3.94875 17.9854 3.76925V1.6155C17.9854 1.436 17.9277 1.2885 17.8124 1.173C17.6969 1.05767 17.5494 1 17.3699 1H2.60085C2.42135 1 2.27385 1.05767 2.15835 1.173C2.04302 1.2885 1.98535 1.436 1.98535 1.6155V3.76925C1.98535 3.94875 2.04302 4.09617 2.15835 4.2115C2.27385 4.32683 2.42135 4.3845 2.60085 4.3845ZM7.36985 9.8655H12.6009V9H7.36985V9.8655Z" fill="white"/>
</svg>
