<svg width="17" height="17" viewBox="0 0 17 17" fill="none" xmlns="http://www.w3.org/2000/svg">
<path d="M3.60449 13.0928H9.60449V12.0928H3.60449V13.0928ZM3.60449 9.09277H12.6045V8.09277H3.60449V9.09277ZM3.60449 5.09277H12.6045V4.09277H3.60449V5.09277ZM1.71999 16.5928C1.25966 16.5928 0.875326 16.4386 0.566992 16.1303C0.258659 15.8219 0.104492 15.4376 0.104492 14.9773V2.20827C0.104492 1.74794 0.258659 1.36361 0.566992 1.05527C0.875326 0.74694 1.25966 0.592773 1.71999 0.592773H14.489C14.9493 0.592773 15.3337 0.74694 15.642 1.05527C15.9503 1.36361 16.1045 1.74794 16.1045 2.20827V14.9773C16.1045 15.4376 15.9503 15.8219 15.642 16.1303C15.3337 16.4386 14.9493 16.5928 14.489 16.5928H1.71999ZM1.71999 15.5928H14.489C14.643 15.5928 14.7841 15.5287 14.9122 15.4005C15.0404 15.2724 15.1045 15.1313 15.1045 14.9773V2.20827C15.1045 2.05427 15.0404 1.91319 14.9122 1.78502C14.7841 1.65686 14.643 1.59277 14.489 1.59277H1.71999C1.56599 1.59277 1.42491 1.65686 1.29674 1.78502C1.16858 1.91319 1.10449 2.05427 1.10449 2.20827V14.9773C1.10449 15.1313 1.16858 15.2724 1.29674 15.4005C1.42491 15.5287 1.56599 15.5928 1.71999 15.5928Z" fill="#252432"/>
</svg>
