<svg width="18" height="19" viewBox="0 0 18 19" fill="none" xmlns="http://www.w3.org/2000/svg">
<path d="M1.71999 18.5932C1.25966 18.5932 0.875326 18.439 0.566992 18.1307C0.258659 17.8224 0.104492 17.438 0.104492 16.9777V4.20871C0.104492 3.74838 0.258659 3.36404 0.566992 3.05571C0.875326 2.74738 1.25966 2.59321 1.71999 2.59321H10.1065L9.10649 3.59321H1.71999C1.56599 3.59321 1.42491 3.65729 1.29674 3.78546C1.16858 3.91363 1.10449 4.05471 1.10449 4.20871V16.9777C1.10449 17.1317 1.16858 17.2728 1.29674 17.401C1.42491 17.5291 1.56599 17.5932 1.71999 17.5932H14.489C14.643 17.5932 14.7841 17.5291 14.9122 17.401C15.0404 17.2728 15.1045 17.1317 15.1045 16.9777V9.48946L16.1045 8.48946V16.9777C16.1045 17.438 15.9503 17.8224 15.642 18.1307C15.3337 18.439 14.9493 18.5932 14.489 18.5932H1.71999ZM6.10449 12.5932V9.97771L15.0487 1.03371C15.1589 0.923378 15.2749 0.847045 15.3967 0.804712C15.5186 0.762379 15.6468 0.741211 15.7815 0.741211C15.9072 0.741211 16.0299 0.762379 16.1497 0.804712C16.2696 0.847045 16.3782 0.916961 16.4757 1.01446L17.5872 2.09321C17.6936 2.20354 17.7743 2.32505 17.8295 2.45771C17.8847 2.59038 17.9122 2.72404 17.9122 2.85871C17.9122 2.99321 17.892 3.12038 17.8515 3.24021C17.8112 3.36021 17.7359 3.47529 17.6257 3.58546L8.62374 12.5932H6.10449ZM7.10449 11.5932H8.19674L14.8622 4.92771L14.316 4.38171L13.7065 3.79696L7.10449 10.399V11.5932Z" fill="#252432"/>
</svg>
