<svg width="18" height="19" viewBox="0 0 18 19" fill="none" xmlns="http://www.w3.org/2000/svg">
<path d="M5.3561 18.9615C4.94743 18.9615 4.60268 18.8217 4.32185 18.542C4.04118 18.2622 3.90085 17.918 3.90085 17.5093C3.90085 17.1006 4.04068 16.7559 4.32035 16.475C4.60002 16.1942 4.94418 16.0538 5.35285 16.0538C5.76152 16.0538 6.10627 16.1937 6.3871 16.4735C6.66793 16.7532 6.80835 17.0974 6.80835 17.506C6.80835 17.9147 6.66852 18.2595 6.38885 18.5403C6.10902 18.8211 5.76477 18.9615 5.3561 18.9615ZM14.6023 18.9615C14.1937 18.9615 13.8489 18.8217 13.5681 18.542C13.2873 18.2622 13.1468 17.918 13.1468 17.5093C13.1468 17.1006 13.2868 16.7559 13.5666 16.475C13.8463 16.1942 14.1904 16.0538 14.5991 16.0538C15.0078 16.0538 15.3525 16.1937 15.6333 16.4735C15.9142 16.7532 16.0546 17.0974 16.0546 17.506C16.0546 17.9147 15.9147 18.2595 15.6348 18.5403C15.3552 18.8211 15.011 18.9615 14.6023 18.9615ZM3.89685 3.51555L6.5661 9.1308H13.1238C13.2392 9.1308 13.3418 9.10196 13.4316 9.0443C13.5213 8.98663 13.5982 8.90646 13.6623 8.8038L16.2776 4.0538C16.3546 3.9128 16.361 3.7878 16.2969 3.6788C16.2328 3.56996 16.1238 3.51555 15.9698 3.51555H3.89685ZM3.44135 2.5923H16.2556C16.6838 2.5923 17.0049 2.76721 17.2191 3.11705C17.4331 3.46705 17.4453 3.82421 17.2556 4.18855L14.4593 9.28855C14.3247 9.52371 14.1418 9.71005 13.9106 9.84755C13.6793 9.98505 13.4311 10.0538 13.1661 10.0538H6.1161L4.88535 12.3155C4.78285 12.4694 4.77968 12.636 4.87585 12.8155C4.97185 12.9949 5.11602 13.0845 5.30835 13.0845H16.0546V14.0078H5.3571C4.7856 14.0078 4.3601 13.7711 4.0806 13.2978C3.8011 12.8246 3.79368 12.3472 4.05835 11.8655L5.56235 9.2033L1.91785 1.5463H0.139099V0.623047H2.5046L3.44135 2.5923Z" fill="white"/>
</svg>
