<svg width="19" height="19" viewBox="0 0 19 19" fill="none" xmlns="http://www.w3.org/2000/svg">
<path d="M8.60449 14.3877H9.60449V10.3877H13.6045V9.3877H9.60449V5.3877H8.60449V9.3877H4.60449V10.3877H8.60449V14.3877ZM9.10774 18.8877C7.86324 18.8877 6.69316 18.6515 5.59749 18.1792C4.50199 17.7069 3.54899 17.0659 2.73849 16.2562C1.92799 15.4465 1.28641 14.4944 0.813742 13.3997C0.340909 12.3052 0.104492 11.1356 0.104492 9.89095C0.104492 8.64645 0.340659 7.47636 0.812992 6.38069C1.28533 5.28519 1.92633 4.3322 2.73599 3.52169C3.54566 2.71119 4.49783 2.06961 5.59249 1.59695C6.68699 1.12411 7.85658 0.887695 9.10124 0.887695C10.3457 0.887695 11.5158 1.12386 12.6115 1.5962C13.707 2.06853 14.66 2.70953 15.4705 3.5192C16.281 4.32886 16.9226 5.28103 17.3952 6.3757C17.8681 7.4702 18.1045 8.63978 18.1045 9.88445C18.1045 11.1289 17.8683 12.299 17.396 13.3947C16.9237 14.4902 16.2827 15.4432 15.473 16.2537C14.6633 17.0642 13.7112 17.7058 12.6165 18.1784C11.522 18.6513 10.3524 18.8877 9.10774 18.8877ZM9.10449 17.8877C11.3378 17.8877 13.2295 17.1127 14.7795 15.5627C16.3295 14.0127 17.1045 12.121 17.1045 9.8877C17.1045 7.65436 16.3295 5.7627 14.7795 4.2127C13.2295 2.6627 11.3378 1.8877 9.10449 1.8877C6.87116 1.8877 4.97949 2.6627 3.42949 4.2127C1.87949 5.7627 1.10449 7.65436 1.10449 9.8877C1.10449 12.121 1.87949 14.0127 3.42949 15.5627C4.97949 17.1127 6.87116 17.8877 9.10449 17.8877Z" fill="#252432"/>
</svg>
