<svg width="19" height="18" viewBox="0 0 19 18" fill="none" xmlns="http://www.w3.org/2000/svg">
<path d="M12.4854 17.2135L8.9276 13.6557L9.63535 12.948L12.4854 15.798L18.1739 10.1095L18.8816 10.8172L12.4854 17.2135ZM16.9854 7.99998H15.9854V3.61548C15.9854 3.46148 15.9213 3.3204 15.7931 3.19223C15.6649 3.06407 15.5239 2.99998 15.3699 2.99998H12.9854V5.23073H4.98535V2.99998H2.60085C2.44685 2.99998 2.30577 3.06407 2.1776 3.19223C2.04944 3.3204 1.98535 3.46148 1.98535 3.61548V16.3845C1.98535 16.5385 2.04944 16.6796 2.1776 16.8077C2.30577 16.9359 2.44685 17 2.60085 17H7.98535V18H2.60085C2.15335 18 1.77219 17.8427 1.45735 17.528C1.14269 17.2132 0.985352 16.832 0.985352 16.3845V3.61548C0.985352 3.16798 1.14269 2.78682 1.45735 2.47198C1.77219 2.15732 2.15335 1.99998 2.60085 1.99998H7.23735C7.33085 1.60898 7.53852 1.28049 7.86035 1.01449C8.18219 0.748319 8.55719 0.615234 8.98535 0.615234C9.42118 0.615234 9.7991 0.748319 10.1191 1.01449C10.4389 1.28049 10.6456 1.60898 10.7391 1.99998H15.3699C15.8174 1.99998 16.1985 2.15732 16.5134 2.47198C16.828 2.78682 16.9854 3.16798 16.9854 3.61548V7.99998ZM8.98535 3.23073C9.21735 3.23073 9.41002 3.15415 9.56335 3.00098C9.71652 2.84782 9.7931 2.65515 9.7931 2.42298C9.7931 2.19098 9.71652 1.9984 9.56335 1.84523C9.41002 1.69207 9.21735 1.61548 8.98535 1.61548C8.75335 1.61548 8.56069 1.69207 8.40735 1.84523C8.25419 1.9984 8.1776 2.19098 8.1776 2.42298C8.1776 2.65515 8.25419 2.84782 8.40735 3.00098C8.56069 3.15415 8.75335 3.23073 8.98535 3.23073Z" fill="white"/>
</svg>
