<svg width="17" height="18" viewBox="0 0 17 18" fill="none" xmlns="http://www.w3.org/2000/svg">
<path d="M15.8105 17.154L9.54904 10.8925C9.04904 11.3182 8.47404 11.6477 7.82404 11.881C7.17404 12.1144 6.52087 12.231 5.86454 12.231C4.26287 12.231 2.90729 11.6766 1.79779 10.5678C0.688456 9.45895 0.133789 8.1042 0.133789 6.50353C0.133789 4.9027 0.688206 3.54678 1.79704 2.43578C2.90587 1.32495 4.26062 0.769531 5.86129 0.769531C7.46212 0.769531 8.81804 1.3242 9.92904 2.43353C11.0399 3.54303 11.5953 4.89861 11.5953 6.50028C11.5953 7.19511 11.4722 7.86753 11.226 8.51753C10.9799 9.16753 10.6568 9.72328 10.2568 10.1848L16.5183 16.4465L15.8105 17.154ZM5.86454 11.231C7.19137 11.231 8.31154 10.7743 9.22504 9.86078C10.1385 8.94745 10.5953 7.82728 10.5953 6.50028C10.5953 5.17328 10.1385 4.05311 9.22504 3.13978C8.31154 2.22628 7.19137 1.76953 5.86454 1.76953C4.53754 1.76953 3.41737 2.22628 2.50404 3.13978C1.59054 4.05311 1.13379 5.17328 1.13379 6.50028C1.13379 7.82728 1.59054 8.94745 2.50404 9.86078C3.41737 10.7743 4.53754 11.231 5.86454 11.231Z" fill="#202740"/>
</svg>
