<svg width="18" height="18" viewBox="0 0 18 18" fill="none" xmlns="http://www.w3.org/2000/svg">
<path d="M7.11985 18L6.75835 15.1077C6.43919 15.0116 6.09402 14.8603 5.72285 14.6538C5.35169 14.4474 5.03602 14.2263 4.77585 13.9905L2.10835 15.125L0.243103 11.875L2.54885 10.1365C2.51935 9.95583 2.49502 9.76967 2.47585 9.578C2.45652 9.38633 2.44685 9.20008 2.44685 9.01925C2.44685 8.85125 2.45652 8.67467 2.47585 8.4895C2.49502 8.30417 2.51935 8.0955 2.54885 7.8635L0.243103 6.125L2.10835 2.9135L4.7566 4.02875C5.05527 3.78008 5.37835 3.55575 5.72585 3.35575C6.07319 3.15575 6.41094 3.00125 6.7391 2.89225L7.11985 0H10.8509L11.2124 2.9115C11.5957 3.04617 11.9344 3.20067 12.2286 3.375C12.5228 3.54933 12.8257 3.76725 13.1374 4.02875L15.8624 2.9135L17.7276 6.125L15.3449 7.92125C15.4 8.12758 15.4309 8.317 15.4374 8.4895C15.4437 8.66183 15.4469 8.832 15.4469 9C15.4469 9.15517 15.4404 9.31892 15.4276 9.49125C15.4148 9.66375 15.3853 9.87242 15.3391 10.1173L17.6834 11.875L15.8181 15.125L13.1374 13.9712C12.8257 14.2327 12.5122 14.4571 12.1969 14.6443C11.8815 14.8314 11.5534 14.9795 11.2124 15.0885L10.8509 18H7.11985ZM7.98535 17H9.9411L10.3104 14.2923C10.8142 14.1589 11.2677 13.9759 11.6709 13.7432C12.0742 13.5106 12.4848 13.1917 12.9026 12.7865L15.3969 13.85L16.3911 12.15L14.2026 10.5058C14.2859 10.2211 14.3411 9.95925 14.3681 9.72025C14.3949 9.48108 14.4084 9.241 14.4084 9C14.4084 8.74617 14.3949 8.50608 14.3681 8.27975C14.3411 8.05358 14.2859 7.80458 14.2026 7.53275L16.4296 5.85L15.4354 4.15L12.8834 5.21925C12.5809 4.88725 12.1831 4.576 11.6901 4.2855C11.1973 3.99517 10.7309 3.80258 10.2911 3.70775L9.98535 1H7.9911L7.6796 3.6885C7.17577 3.79617 6.7126 3.96958 6.2901 4.20875C5.86777 4.44775 5.4476 4.77625 5.0296 5.19425L2.53535 4.15L1.5411 5.85L3.71035 7.46925C3.62702 7.69358 3.56869 7.93717 3.53535 8.2C3.50202 8.46283 3.48535 8.73592 3.48535 9.01925C3.48535 9.27308 3.50202 9.525 3.53535 9.775C3.56869 10.025 3.6206 10.2686 3.6911 10.5058L1.5411 12.15L2.53535 13.85L5.01035 12.8C5.40269 13.1962 5.81002 13.5138 6.23235 13.753C6.65485 13.992 7.13085 14.1782 7.66035 14.3115L7.98535 17ZM8.95835 11.5C9.65585 11.5 10.2469 11.2577 10.7316 10.773C11.2161 10.2885 11.4584 9.6975 11.4584 9C11.4584 8.3025 11.2161 7.7115 10.7316 7.227C10.2469 6.74233 9.65585 6.5 8.95835 6.5C8.25719 6.5 7.66519 6.74233 7.18235 7.227C6.69969 7.7115 6.45835 8.3025 6.45835 9C6.45835 9.6975 6.69969 10.2885 7.18235 10.773C7.66519 11.2577 8.25719 11.5 8.95835 11.5Z" fill="white"/>
</svg>
