<svg width="19" height="16" viewBox="0 0 19 16" fill="none" xmlns="http://www.w3.org/2000/svg">
<path d="M9.7546 16V15H16.3699C16.5365 15 16.6808 14.9487 16.8026 14.8462C16.9244 14.7436 16.9854 14.6089 16.9854 14.4423V7.55375C16.9854 5.68075 16.2966 4.11633 14.9191 2.8605C13.5414 1.60483 11.8969 0.977 9.98535 0.977C8.07385 0.977 6.42927 1.60483 5.0516 2.8605C3.6741 4.11633 2.98535 5.68075 2.98535 7.55375V13.2308H2.48535C2.07635 13.2308 1.7241 13.0926 1.4286 12.8163C1.1331 12.5401 0.985352 12.1975 0.985352 11.7885V9.90375C0.985352 9.60508 1.08243 9.34008 1.2766 9.10875C1.47093 8.87725 1.70718 8.68908 1.98535 8.54425L2.0026 7.3155C2.03343 6.27183 2.26968 5.30517 2.71135 4.4155C3.15302 3.52567 3.73443 2.75125 4.4556 2.09225C5.17677 1.43325 6.0146 0.919834 6.9691 0.552C7.9236 0.184 8.92902 0 9.98535 0C11.0417 0 12.0462 0.184 12.9989 0.552C13.9514 0.919834 14.7892 1.43233 15.5124 2.0895C16.2354 2.7465 16.8168 3.51983 17.2566 4.4095C17.6963 5.29933 17.9334 6.266 17.9681 7.3095L17.9854 8.5135C18.2507 8.63783 18.4837 8.80517 18.6844 9.0155C18.885 9.22567 18.9854 9.47817 18.9854 9.773V11.9385C18.9854 12.2333 18.885 12.4859 18.6844 12.6962C18.4837 12.9064 18.2507 13.0737 17.9854 13.198V14.4423C17.9854 14.8769 17.828 15.2452 17.5134 15.547C17.1985 15.849 16.8174 16 16.3699 16H9.7546ZM7.36985 9.5385C7.16352 9.5385 6.98377 9.46833 6.8306 9.328C6.67743 9.1875 6.60085 9.01408 6.60085 8.80775C6.60085 8.60125 6.67743 8.42467 6.8306 8.278C6.98377 8.13117 7.16352 8.05775 7.36985 8.05775C7.57635 8.05775 7.75618 8.13117 7.90935 8.278C8.06252 8.42467 8.1391 8.60125 8.1391 8.80775C8.1391 9.01408 8.06252 9.1875 7.90935 9.328C7.75618 9.46833 7.57635 9.5385 7.36985 9.5385ZM12.6009 9.5385C12.3944 9.5385 12.2145 9.46833 12.0614 9.328C11.9082 9.1875 11.8316 9.01408 11.8316 8.80775C11.8316 8.60125 11.9082 8.42467 12.0614 8.278C12.2145 8.13117 12.3944 8.05775 12.6009 8.05775C12.8072 8.05775 12.9869 8.13117 13.1401 8.278C13.2933 8.42467 13.3699 8.60125 13.3699 8.80775C13.3699 9.01408 13.2933 9.1875 13.1401 9.328C12.9869 9.46833 12.8072 9.5385 12.6009 9.5385ZM4.7026 7.95C4.6116 6.4525 5.09369 5.17625 6.14885 4.12125C7.20402 3.06608 8.49952 2.5385 10.0354 2.5385C11.3264 2.5385 12.4703 2.926 13.4671 3.701C14.4639 4.476 15.0726 5.49425 15.2931 6.75575C13.9688 6.73908 12.7396 6.40125 11.6056 5.74225C10.4716 5.08325 9.60135 4.16658 8.99485 2.99225C8.75385 4.14608 8.25227 5.15733 7.4901 6.026C6.72793 6.8945 5.79877 7.53583 4.7026 7.95Z" fill="white"/>
</svg>
