<svg width="15" height="15" viewBox="0 0 15 15" fill="none" xmlns="http://www.w3.org/2000/svg">
<path d="M10.2061 11.2663L10.9966 10.4758L8.16382 7.64309V4.12109H7.03882V8.09891L10.2061 11.2663ZM7.60263 14.9961C6.61713 14.9961 5.69082 14.8091 4.82369 14.4351C3.95657 14.0611 3.20232 13.5535 2.56094 12.9124C1.91957 12.2713 1.41176 11.5173 1.03751 10.6506C0.663381 9.78384 0.476318 8.85778 0.476318 7.87241C0.476318 6.88691 0.663318 5.96059 1.03732 5.09347C1.41132 4.22634 1.91888 3.47209 2.56001 2.83072C3.20113 2.18934 3.95507 1.68153 4.82182 1.30728C5.68857 0.933156 6.61463 0.746094 7.60001 0.746094C8.58551 0.746094 9.51182 0.933093 10.3789 1.30709C11.2461 1.68109 12.0003 2.18866 12.6417 2.82978C13.2831 3.47091 13.7909 4.22484 14.1651 5.09159C14.5393 5.95834 14.7263 6.88441 14.7263 7.86978C14.7263 8.85528 14.5393 9.78159 14.1653 10.6487C13.7913 11.5158 13.2838 12.2701 12.6426 12.9115C12.0015 13.5528 11.2476 14.0607 10.3808 14.4349C9.51407 14.809 8.58801 14.9961 7.60263 14.9961ZM7.60132 13.8711C9.26382 13.8711 10.6794 13.2867 11.8482 12.118C13.0169 10.9492 13.6013 9.53359 13.6013 7.87109C13.6013 6.20859 13.0169 4.79297 11.8482 3.62422C10.6794 2.45547 9.26382 1.87109 7.60132 1.87109C5.93882 1.87109 4.52319 2.45547 3.35444 3.62422C2.18569 4.79297 1.60132 6.20859 1.60132 7.87109C1.60132 9.53359 2.18569 10.9492 3.35444 12.118C4.52319 13.2867 5.93882 13.8711 7.60132 13.8711Z" fill="#7F8389"/>
</svg>
