<svg width="16" height="16" viewBox="0 0 16 16" fill="none" xmlns="http://www.w3.org/2000/svg">
<path d="M3.50919 11.9399C4.14669 11.4669 4.84119 11.0933 5.59269 10.8192C6.34407 10.5452 7.14382 10.4082 7.99194 10.4082C8.84007 10.4082 9.63982 10.5452 10.3912 10.8192C11.1427 11.0933 11.8372 11.4669 12.4747 11.9399C12.9409 11.4274 13.3104 10.8341 13.583 10.1601C13.8556 9.48614 13.9919 8.75633 13.9919 7.9707C13.9919 6.3082 13.4076 4.89258 12.2388 3.72383C11.0701 2.55508 9.65444 1.9707 7.99194 1.9707C6.32944 1.9707 4.91382 2.55508 3.74507 3.72383C2.57632 4.89258 1.99194 6.3082 1.99194 7.9707C1.99194 8.75633 2.12826 9.48614 2.40088 10.1601C2.67351 10.8341 3.04294 11.4274 3.50919 11.9399ZM7.99213 8.5332C7.30738 8.5332 6.72994 8.2982 6.25982 7.8282C5.78957 7.35808 5.55444 6.78064 5.55444 6.09589C5.55444 5.41114 5.78944 4.8337 6.25944 4.36358C6.72957 3.89333 7.30701 3.6582 7.99176 3.6582C8.67651 3.6582 9.25394 3.8932 9.72407 4.3632C10.1943 4.83333 10.4294 5.41077 10.4294 6.09552C10.4294 6.78027 10.1944 7.3577 9.72444 7.82783C9.25432 8.29808 8.67688 8.5332 7.99213 8.5332ZM7.99194 15.0957C7.00257 15.0957 6.07444 14.9096 5.20757 14.5375C4.34069 14.1654 3.58663 13.6586 2.94538 13.0173C2.30401 12.376 1.79726 11.622 1.42513 10.7551C1.05301 9.8882 0.866943 8.96008 0.866943 7.9707C0.866943 6.98133 1.05301 6.0532 1.42513 5.18633C1.79726 4.31945 2.30401 3.56539 2.94538 2.92414C3.58663 2.28277 4.34069 1.77602 5.20757 1.40389C6.07444 1.03177 7.00257 0.845703 7.99194 0.845703C8.98132 0.845703 9.90944 1.03177 10.7763 1.40389C11.6432 1.77602 12.3973 2.28277 13.0385 2.92414C13.6799 3.56539 14.1866 4.31945 14.5588 5.18633C14.9309 6.0532 15.1169 6.98133 15.1169 7.9707C15.1169 8.96008 14.9309 9.8882 14.5588 10.7551C14.1866 11.622 13.6799 12.376 13.0385 13.0173C12.3973 13.6586 11.6432 14.1654 10.7763 14.5375C9.90944 14.9096 8.98132 15.0957 7.99194 15.0957ZM7.99194 13.9707C8.66882 13.9707 9.32144 13.8618 9.94982 13.6441C10.5782 13.4262 11.1361 13.1216 11.6236 12.7304C11.1361 12.3534 10.5854 12.0596 9.97157 11.8491C9.35757 11.6385 8.69769 11.5332 7.99194 11.5332C7.28619 11.5332 6.62513 11.6373 6.00876 11.8454C5.39238 12.0536 4.84288 12.3486 4.36026 12.7304C4.84776 13.1216 5.40569 13.4262 6.03407 13.6441C6.66244 13.8618 7.31507 13.9707 7.99194 13.9707ZM7.99194 7.4082C8.36507 7.4082 8.67707 7.2827 8.92794 7.0317C9.17894 6.78083 9.30444 6.46883 9.30444 6.0957C9.30444 5.72258 9.17894 5.41058 8.92794 5.1597C8.67707 4.9087 8.36507 4.7832 7.99194 4.7832C7.61882 4.7832 7.30682 4.9087 7.05594 5.1597C6.80494 5.41058 6.67944 5.72258 6.67944 6.0957C6.67944 6.46883 6.80494 6.78083 7.05594 7.0317C7.30682 7.2827 7.61882 7.4082 7.99194 7.4082Z" fill="#7F8389"/>
</svg>
