<svg width="18" height="16" viewBox="0 0 18 16" fill="none" xmlns="http://www.w3.org/2000/svg">
<path d="M1.98535 15.9999V5.09987L0.2276 1.23437L1.1431 0.807617L3.06985 5.04987H14.9009L16.8276 0.807617L17.7431 1.23437L15.9854 5.09987V15.9999H1.98535ZM6.98535 9.49987H10.9854C11.127 9.49987 11.2458 9.45187 11.3416 9.35587C11.4374 9.25987 11.4854 9.14095 11.4854 8.99912C11.4854 8.85728 11.4374 8.73862 11.3416 8.64312C11.2458 8.54762 11.127 8.49987 10.9854 8.49987H6.98535C6.84368 8.49987 6.72493 8.54787 6.6291 8.64387C6.53327 8.73987 6.48535 8.85878 6.48535 9.00062C6.48535 9.14245 6.53327 9.26112 6.6291 9.35662C6.72493 9.45212 6.84368 9.49987 6.98535 9.49987ZM2.98535 14.9999H14.9854V6.04987H2.98535V14.9999Z" fill="white"/>
</svg>
